<svg xmlns="http://www.w3.org/2000/svg" viewBox="4.8 -0.3 63.5 65.2"><circle cx="18.7" cy="1.7" r="0.78" fill="#ffffff"></circle><circle cx="20.4" cy="1.7" r="0.78" fill="#ffffff"></circle><circle cx="22.1" cy="1.7" r="0.78" fill="#ffffff"></circle><circle cx="17" cy="3.4" r="0.78" fill="#ffffff"></circle><circle cx="20.4" cy="3.4" r="0.78" fill="#ffffff"></circle><circle cx="13.6" cy="5.1" r="0.78" fill="#ffffff"></circle><circle cx="15.3" cy="5.1" r="0.78" fill="#ffffff"></circle><circle cx="17" cy="5.1" r="0.78" fill="#ffffff"></circle><circle cx="18.7" cy="5.1" r="0.78" fill="#ffffff"></circle><circle cx="8.5" cy="6.8" r="0.78" fill="#ffffff"></circle><circle cx="10.2" cy="6.8" r="0.78" fill="#ffffff"></circle><circle cx="11.9" cy="6.8" r="0.78" fill="#ffffff"></circle><circle cx="13.6" cy="6.8" r="0.78" fill="#ffffff"></circle><circle cx="15.3" cy="6.8" r="0.78" fill="#ffffff"></circle><circle cx="17" cy="6.8" r="0.78" fill="#ffffff"></circle><circle cx="18.7" cy="6.8" r="0.78" fill="#ffffff"></circle><circle cx="20.4" cy="6.8" r="0.78" fill="#ffffff"></circle><circle cx="22.1" cy="6.8" r="0.78" fill="#ffffff"></circle><circle cx="23.8" cy="6.8" r="0.78" fill="#ffffff"></circle><circle cx="6.8" cy="8.5" r="0.78" fill="#ffffff"></circle><circle cx="8.5" cy="8.5" r="0.78" fill="#ffffff"></circle><circle cx="10.2" cy="8.5" r="0.78" fill="#ffffff"></circle><circle cx="11.9" cy="8.5" r="0.78" fill="#ffffff"></circle><circle cx="13.6" cy="8.5" r="0.78" fill="#ffffff"></circle><circle cx="15.3" cy="8.5" r="0.78" fill="#ffffff"></circle><circle cx="17" cy="8.5" r="0.78" fill="#ffffff"></circle><circle cx="18.7" cy="8.5" r="0.78" fill="#ffffff"></circle><circle cx="20.4" cy="8.5" r="0.78" fill="#ffffff"></circle><circle cx="22.1" cy="8.5" r="0.78" fill="#ffffff"></circle><circle cx="23.8" cy="8.5" r="0.78" fill="#ffffff"></circle><circle cx="25.5" cy="8.5" r="0.78" fill="#ffffff"></circle><circle cx="42.5" cy="8.5" r="0.78" fill="#ffffff"></circle><circle cx="44.2" cy="8.5" r="0.78" fill="#ffffff"></circle><circle cx="6.8" cy="10.2" r="0.78" fill="#ffffff"></circle><circle cx="8.5" cy="10.2" r="0.78" fill="#ffffff"></circle><circle cx="10.2" cy="10.2" r="0.78" fill="#ffffff"></circle><circle cx="11.9" cy="10.2" r="0.78" fill="#ffffff"></circle><circle cx="13.6" cy="10.2" r="0.78" fill="#ffffff"></circle><circle cx="15.3" cy="10.2" r="0.78" fill="#ffffff"></circle><circle cx="17" cy="10.2" r="0.78" fill="#ffffff"></circle><circle cx="18.7" cy="10.2" r="0.78" fill="#ffffff"></circle><circle cx="20.4" cy="10.2" r="0.78" fill="#ffffff"></circle><circle cx="22.1" cy="10.2" r="0.78" fill="#ffffff"></circle><circle cx="23.8" cy="10.2" r="0.78" fill="#ffffff"></circle><circle cx="25.5" cy="10.2" r="0.78" fill="#ffffff"></circle><circle cx="27.2" cy="10.2" r="0.78" fill="#ffffff"></circle><circle cx="35.7" cy="10.2" r="0.78" fill="#ffffff"></circle><circle cx="37.4" cy="10.2" r="0.78" fill="#ffffff"></circle><circle cx="39.1" cy="10.2" r="0.78" fill="#ffffff"></circle><circle cx="40.8" cy="10.2" r="0.78" fill="#ffffff"></circle><circle cx="42.5" cy="10.2" r="0.78" fill="#ffffff"></circle><circle cx="44.2" cy="10.2" r="0.78" fill="#ffffff"></circle><circle cx="6.8" cy="11.9" r="0.78" fill="#ffffff"></circle><circle cx="8.5" cy="11.9" r="0.78" fill="#ffffff"></circle><circle cx="10.2" cy="11.9" r="0.78" fill="#ffffff"></circle><circle cx="11.9" cy="11.9" r="0.78" fill="#ffffff"></circle><circle cx="13.6" cy="11.9" r="0.78" fill="#ffffff"></circle><circle cx="15.3" cy="11.9" r="0.78" fill="#ffffff"></circle><circle cx="17" cy="11.9" r="0.78" fill="#ffffff"></circle><circle cx="18.7" cy="11.9" r="0.78" fill="#ffffff"></circle><circle cx="20.4" cy="11.9" r="0.78" fill="#ffffff"></circle><circle cx="22.1" cy="11.9" r="0.78" fill="#ffffff"></circle><circle cx="23.8" cy="11.9" r="0.78" fill="#ffffff"></circle><circle cx="25.5" cy="11.9" r="0.78" fill="#ffffff"></circle><circle cx="27.2" cy="11.9" r="0.78" fill="#ffffff"></circle><circle cx="28.9" cy="11.9" r="0.78" fill="#ffffff"></circle><circle cx="30.6" cy="11.9" r="0.78" fill="#ffffff"></circle><circle cx="32.3" cy="11.9" r="0.78" fill="#ffffff"></circle><circle cx="34" cy="11.9" r="0.78" fill="#ffffff"></circle><circle cx="35.7" cy="11.9" r="0.78" fill="#ffffff"></circle><circle cx="37.4" cy="11.9" r="0.78" fill="#ffffff"></circle><circle cx="39.1" cy="11.9" r="0.78" fill="#ffffff"></circle><circle cx="40.8" cy="11.9" r="0.78" fill="#ffffff"></circle><circle cx="42.5" cy="11.9" r="0.78" fill="#ffffff"></circle><circle cx="44.2" cy="11.9" r="0.78" fill="#ffffff"></circle><circle cx="45.9" cy="11.9" r="0.78" fill="#ffffff"></circle><circle cx="47.6" cy="11.9" r="0.78" fill="#ffffff"></circle><circle cx="49.3" cy="11.9" r="0.78" fill="#ffffff"></circle><circle cx="51" cy="11.9" r="0.78" fill="#ffffff"></circle><circle cx="11.9" cy="13.6" r="0.78" fill="#ffffff"></circle><circle cx="13.6" cy="13.6" r="0.78" fill="#ffffff"></circle><circle cx="15.3" cy="13.6" r="0.78" fill="#ffffff"></circle><circle cx="17" cy="13.6" r="0.78" fill="#ffffff"></circle><circle cx="18.7" cy="13.6" r="0.78" fill="#ffffff"></circle><circle cx="20.4" cy="13.6" r="0.78" fill="#ffffff"></circle><circle cx="22.1" cy="13.6" r="0.78" fill="#ffffff"></circle><circle cx="23.8" cy="13.6" r="0.78" fill="#ffffff"></circle><circle cx="25.5" cy="13.6" r="0.78" fill="#ffffff"></circle><circle cx="27.2" cy="13.6" r="0.78" fill="#ffffff"></circle><circle cx="28.9" cy="13.6" r="0.78" fill="#ffffff"></circle><circle cx="30.6" cy="13.6" r="0.78" fill="#ffffff"></circle><circle cx="32.3" cy="13.6" r="0.78" fill="#ffffff"></circle><circle cx="34" cy="13.6" r="0.78" fill="#ffffff"></circle><circle cx="35.7" cy="13.6" r="0.78" fill="#ffffff"></circle><circle cx="37.4" cy="13.6" r="0.78" fill="#ffffff"></circle><circle cx="39.1" cy="13.6" r="0.78" fill="#ffffff"></circle><circle cx="40.8" cy="13.6" r="0.78" fill="#ffffff"></circle><circle cx="42.5" cy="13.6" r="0.78" fill="#ffffff"></circle><circle cx="44.2" cy="13.6" r="0.78" fill="#ffffff"></circle><circle cx="45.9" cy="13.6" r="0.78" fill="#ffffff"></circle><circle cx="47.6" cy="13.6" r="0.78" fill="#ffffff"></circle><circle cx="49.3" cy="13.6" r="0.78" fill="#ffffff"></circle><circle cx="51" cy="13.6" r="0.78" fill="#ffffff"></circle><circle cx="17" cy="15.3" r="0.78" fill="#ffffff"></circle><circle cx="18.7" cy="15.3" r="0.78" fill="#ffffff"></circle><circle cx="20.4" cy="15.3" r="0.78" fill="#ffffff"></circle><circle cx="22.1" cy="15.3" r="0.78" fill="#ffffff"></circle><circle cx="23.8" cy="15.3" r="0.78" fill="#ffffff"></circle><circle cx="25.5" cy="15.3" r="0.78" fill="#ffffff"></circle><circle cx="27.2" cy="15.3" r="0.78" fill="#ffffff"></circle><circle cx="28.9" cy="15.3" r="0.78" fill="#ffffff"></circle><circle cx="30.6" cy="15.3" r="0.78" fill="#ffffff"></circle><circle cx="32.3" cy="15.3" r="0.78" fill="#ffffff"></circle><circle cx="34" cy="15.3" r="0.78" fill="#ffffff"></circle><circle cx="35.7" cy="15.3" r="0.78" fill="#ffffff"></circle><circle cx="37.4" cy="15.3" r="0.78" fill="#ffffff"></circle><circle cx="39.1" cy="15.3" r="0.78" fill="#ffffff"></circle><circle cx="40.8" cy="15.3" r="0.78" fill="#ffffff"></circle><circle cx="42.5" cy="15.3" r="0.78" fill="#ffffff"></circle><circle cx="44.2" cy="15.3" r="0.78" fill="#ffffff"></circle><circle cx="45.9" cy="15.3" r="0.78" fill="#ffffff"></circle><circle cx="47.6" cy="15.3" r="0.78" fill="#ffffff"></circle><circle cx="49.3" cy="15.3" r="0.78" fill="#ffffff"></circle><circle cx="51" cy="15.3" r="0.78" fill="#ffffff"></circle><circle cx="52.7" cy="15.3" r="0.78" fill="#ffffff"></circle><circle cx="22.1" cy="17" r="0.78" fill="#ffffff"></circle><circle cx="23.8" cy="17" r="0.78" fill="#ffffff"></circle><circle cx="25.5" cy="17" r="0.78" fill="#ffffff"></circle><circle cx="27.2" cy="17" r="0.78" fill="#ffffff"></circle><circle cx="28.9" cy="17" r="0.78" fill="#ffffff"></circle><circle cx="30.6" cy="17" r="0.78" fill="#ffffff"></circle><circle cx="32.3" cy="17" r="0.78" fill="#ffffff"></circle><circle cx="34" cy="17" r="0.78" fill="#ffffff"></circle><circle cx="35.7" cy="17" r="0.78" fill="#ffffff"></circle><circle cx="37.4" cy="17" r="0.78" fill="#ffffff"></circle><circle cx="47.6" cy="17" r="0.78" fill="#ffffff"></circle><circle cx="22.1" cy="18.7" r="0.78" fill="#ffffff"></circle><circle cx="23.8" cy="18.7" r="0.78" fill="#ffffff"></circle><circle cx="25.5" cy="18.7" r="0.78" fill="#ffffff"></circle><circle cx="27.2" cy="18.7" r="0.78" fill="#ffffff"></circle><circle cx="28.9" cy="18.7" r="0.78" fill="#ffffff"></circle><circle cx="30.6" cy="18.7" r="0.78" fill="#ffffff"></circle><circle cx="34" cy="18.7" r="0.78" fill="#ffffff"></circle><circle cx="23.8" cy="20.4" r="0.78" fill="#ffffff"></circle><circle cx="25.5" cy="20.4" r="0.78" fill="#ffffff"></circle><circle cx="27.2" cy="20.4" r="0.78" fill="#ffffff"></circle><circle cx="28.9" cy="20.4" r="0.78" fill="#ffffff"></circle><circle cx="45.9" cy="20.4" r="0.78" fill="#ffffff"></circle><circle cx="47.6" cy="20.4" r="0.78" fill="#ffffff"></circle><circle cx="49.3" cy="20.4" r="0.78" fill="#ffffff"></circle><circle cx="51" cy="20.4" r="0.78" fill="#ffffff"></circle><circle cx="23.8" cy="22.1" r="0.78" fill="#ffffff"></circle><circle cx="25.5" cy="22.1" r="0.78" fill="#ffffff"></circle><circle cx="27.2" cy="22.1" r="0.78" fill="#ffffff"></circle><circle cx="45.9" cy="22.1" r="0.78" fill="#ffffff"></circle><circle cx="47.6" cy="22.1" r="0.78" fill="#ffffff"></circle><circle cx="49.3" cy="22.1" r="0.78" fill="#ffffff"></circle><circle cx="51" cy="22.1" r="0.78" fill="#ffffff"></circle><circle cx="52.7" cy="22.1" r="0.78" fill="#ffffff"></circle><circle cx="54.4" cy="22.1" r="0.78" fill="#ffffff"></circle><circle cx="25.5" cy="23.8" r="0.78" fill="#ffffff"></circle><circle cx="45.9" cy="23.8" r="0.78" fill="#ffffff"></circle><circle cx="47.6" cy="23.8" r="0.78" fill="#ffffff"></circle><circle cx="49.3" cy="23.8" r="0.78" fill="#ffffff"></circle><circle cx="51" cy="23.8" r="0.78" fill="#ffffff"></circle><circle cx="52.7" cy="23.8" r="0.78" fill="#ffffff"></circle><circle cx="54.4" cy="23.8" r="0.78" fill="#ffffff"></circle><circle cx="56.1" cy="23.8" r="0.78" fill="#ffffff"></circle><circle cx="57.8" cy="23.8" r="0.78" fill="#ffffff"></circle><circle cx="44.2" cy="25.5" r="0.78" fill="#ffffff"></circle><circle cx="45.9" cy="25.5" r="0.78" fill="#ffffff"></circle><circle cx="47.6" cy="25.5" r="0.78" fill="#ffffff"></circle><circle cx="49.3" cy="25.5" r="0.78" fill="#ffffff"></circle><circle cx="51" cy="25.5" r="0.78" fill="#ffffff"></circle><circle cx="52.7" cy="25.5" r="0.78" fill="#ffffff"></circle><circle cx="54.4" cy="25.5" r="0.78" fill="#ffffff"></circle><circle cx="56.1" cy="25.5" r="0.78" fill="#ffffff"></circle><circle cx="57.8" cy="25.5" r="0.78" fill="#ffffff"></circle><circle cx="37.4" cy="27.2" r="0.78" fill="#ffffff"></circle><circle cx="40.8" cy="27.2" r="0.78" fill="#ffffff"></circle><circle cx="44.2" cy="27.2" r="0.78" fill="#ffffff"></circle><circle cx="45.9" cy="27.2" r="0.78" fill="#ffffff"></circle><circle cx="47.6" cy="27.2" r="0.78" fill="#ffffff"></circle><circle cx="49.3" cy="27.2" r="0.78" fill="#ffffff"></circle><circle cx="51" cy="27.2" r="0.78" fill="#ffffff"></circle><circle cx="52.7" cy="27.2" r="0.78" fill="#ffffff"></circle><circle cx="54.4" cy="27.2" r="0.78" fill="#ffffff"></circle><circle cx="56.1" cy="27.2" r="0.78" fill="#ffffff"></circle><circle cx="57.8" cy="27.2" r="0.78" fill="#ffffff"></circle><circle cx="39.1" cy="28.9" r="0.78" fill="#ffffff"></circle><circle cx="40.8" cy="28.9" r="0.78" fill="#ffffff"></circle><circle cx="42.5" cy="28.9" r="0.78" fill="#ffffff"></circle><circle cx="44.2" cy="28.9" r="0.78" fill="#ffffff"></circle><circle cx="45.9" cy="28.9" r="0.78" fill="#ffffff"></circle><circle cx="47.6" cy="28.9" r="0.78" fill="#ffffff"></circle><circle cx="49.3" cy="28.9" r="0.78" fill="#ffffff"></circle><circle cx="51" cy="28.9" r="0.78" fill="#ffffff"></circle><circle cx="52.7" cy="28.9" r="0.78" fill="#ffffff"></circle><circle cx="54.4" cy="28.9" r="0.78" fill="#ffffff"></circle><circle cx="56.1" cy="28.9" r="0.78" fill="#ffffff"></circle><circle cx="57.8" cy="28.9" r="0.78" fill="#ffffff"></circle><circle cx="37.4" cy="30.6" r="0.78" fill="#ffffff"></circle><circle cx="39.1" cy="30.6" r="0.78" fill="#ffffff"></circle><circle cx="40.8" cy="30.6" r="0.78" fill="#ffffff"></circle><circle cx="42.5" cy="30.6" r="0.78" fill="#ffffff"></circle><circle cx="44.2" cy="30.6" r="0.78" fill="#ffffff"></circle><circle cx="45.9" cy="30.6" r="0.78" fill="#ffffff"></circle><circle cx="47.6" cy="30.6" r="0.78" fill="#ffffff"></circle><circle cx="49.3" cy="30.6" r="0.78" fill="#ffffff"></circle><circle cx="51" cy="30.6" r="0.78" fill="#ffffff"></circle><circle cx="52.7" cy="30.6" r="0.78" fill="#ffffff"></circle><circle cx="54.4" cy="30.6" r="0.78" fill="#ffffff"></circle><circle cx="56.1" cy="30.6" r="0.78" fill="#ffffff"></circle><circle cx="57.8" cy="30.6" r="0.78" fill="#ffffff"></circle><circle cx="59.5" cy="30.6" r="0.78" fill="#ffffff"></circle><circle cx="37.4" cy="32.3" r="0.78" fill="#ffffff"></circle><circle cx="39.1" cy="32.3" r="0.78" fill="#ffffff"></circle><circle cx="40.8" cy="32.3" r="0.78" fill="#ffffff"></circle><circle cx="42.5" cy="32.3" r="0.78" fill="#ffffff"></circle><circle cx="44.2" cy="32.3" r="0.78" fill="#ffffff"></circle><circle cx="45.9" cy="32.3" r="0.78" fill="#ffffff"></circle><circle cx="47.6" cy="32.3" r="0.78" fill="#ffffff"></circle><circle cx="49.3" cy="32.3" r="0.78" fill="#ffffff"></circle><circle cx="51" cy="32.3" r="0.78" fill="#ffffff"></circle><circle cx="52.7" cy="32.3" r="0.78" fill="#ffffff"></circle><circle cx="54.4" cy="32.3" r="0.78" fill="#ffffff"></circle><circle cx="56.1" cy="32.3" r="0.78" fill="#ffffff"></circle><circle cx="57.8" cy="32.3" r="0.78" fill="#ffffff"></circle><circle cx="59.5" cy="32.3" r="0.78" fill="#ffffff"></circle><circle cx="37.4" cy="34" r="0.78" fill="#ffffff"></circle><circle cx="39.1" cy="34" r="0.78" fill="#ffffff"></circle><circle cx="40.8" cy="34" r="0.78" fill="#ffffff"></circle><circle cx="42.5" cy="34" r="0.78" fill="#ffffff"></circle><circle cx="44.2" cy="34" r="0.78" fill="#ffffff"></circle><circle cx="45.9" cy="34" r="0.78" fill="#ffffff"></circle><circle cx="47.6" cy="34" r="0.78" fill="#ffffff"></circle><circle cx="49.3" cy="34" r="0.78" fill="#ffffff"></circle><circle cx="51" cy="34" r="0.78" fill="#ffffff"></circle><circle cx="52.7" cy="34" r="0.78" fill="#ffffff"></circle><circle cx="54.4" cy="34" r="0.78" fill="#ffffff"></circle><circle cx="56.1" cy="34" r="0.78" fill="#ffffff"></circle><circle cx="57.8" cy="34" r="0.78" fill="#ffffff"></circle><circle cx="35.7" cy="35.7" r="0.78" fill="#ffffff"></circle><circle cx="37.4" cy="35.7" r="0.78" fill="#ffffff"></circle><circle cx="39.1" cy="35.7" r="0.78" fill="#ffffff"></circle><circle cx="40.8" cy="35.7" r="0.78" fill="#ffffff"></circle><circle cx="42.5" cy="35.7" r="0.78" fill="#ffffff"></circle><circle cx="44.2" cy="35.7" r="0.78" fill="#ffffff"></circle><circle cx="45.9" cy="35.7" r="0.78" fill="#ffffff"></circle><circle cx="47.6" cy="35.7" r="0.78" fill="#ffffff"></circle><circle cx="49.3" cy="35.7" r="0.78" fill="#ffffff"></circle><circle cx="51" cy="35.7" r="0.78" fill="#ffffff"></circle><circle cx="52.7" cy="35.7" r="0.78" fill="#ffffff"></circle><circle cx="54.4" cy="35.7" r="0.78" fill="#ffffff"></circle><circle cx="56.1" cy="35.7" r="0.78" fill="#ffffff"></circle><circle cx="57.8" cy="35.7" r="0.78" fill="#ffffff"></circle><circle cx="34" cy="37.4" r="0.78" fill="#ffffff"></circle><circle cx="35.7" cy="37.4" r="0.78" fill="#ffffff"></circle><circle cx="37.4" cy="37.4" r="0.78" fill="#ffffff"></circle><circle cx="39.1" cy="37.4" r="0.78" fill="#ffffff"></circle><circle cx="40.8" cy="37.4" r="0.78" fill="#ffffff"></circle><circle cx="42.5" cy="37.4" r="0.78" fill="#ffffff"></circle><circle cx="44.2" cy="37.4" r="0.78" fill="#ffffff"></circle><circle cx="45.9" cy="37.4" r="0.78" fill="#ffffff"></circle><circle cx="47.6" cy="37.4" r="0.78" fill="#ffffff"></circle><circle cx="49.3" cy="37.4" r="0.78" fill="#ffffff"></circle><circle cx="51" cy="37.4" r="0.78" fill="#ffffff"></circle><circle cx="52.7" cy="37.4" r="0.78" fill="#ffffff"></circle><circle cx="54.4" cy="37.4" r="0.78" fill="#ffffff"></circle><circle cx="56.1" cy="37.4" r="0.78" fill="#ffffff"></circle><circle cx="35.7" cy="39.1" r="0.78" fill="#ffffff"></circle><circle cx="37.4" cy="39.1" r="0.78" fill="#ffffff"></circle><circle cx="39.1" cy="39.1" r="0.78" fill="#ffffff"></circle><circle cx="40.8" cy="39.1" r="0.78" fill="#ffffff"></circle><circle cx="42.5" cy="39.1" r="0.78" fill="#ffffff"></circle><circle cx="44.2" cy="39.1" r="0.78" fill="#ffffff"></circle><circle cx="45.9" cy="39.1" r="0.78" fill="#ffffff"></circle><circle cx="47.6" cy="39.1" r="0.78" fill="#ffffff"></circle><circle cx="49.3" cy="39.1" r="0.78" fill="#ffffff"></circle><circle cx="51" cy="39.1" r="0.78" fill="#ffffff"></circle><circle cx="52.7" cy="39.1" r="0.78" fill="#ffffff"></circle><circle cx="54.4" cy="39.1" r="0.78" fill="#ffffff"></circle><circle cx="59.5" cy="39.1" r="0.78" fill="#ffffff"></circle><circle cx="61.2" cy="39.1" r="0.78" fill="#ffffff"></circle><circle cx="62.9" cy="39.1" r="0.78" fill="#ffffff"></circle><circle cx="64.6" cy="39.1" r="0.78" fill="#ffffff"></circle><circle cx="35.7" cy="40.8" r="0.78" fill="#ffffff"></circle><circle cx="37.4" cy="40.8" r="0.78" fill="#ffffff"></circle><circle cx="39.1" cy="40.8" r="0.78" fill="#ffffff"></circle><circle cx="40.8" cy="40.8" r="0.78" fill="#ffffff"></circle><circle cx="42.5" cy="40.8" r="0.78" fill="#ffffff"></circle><circle cx="44.2" cy="40.8" r="0.78" fill="#ffffff"></circle><circle cx="45.9" cy="40.8" r="0.78" fill="#ffffff"></circle><circle cx="47.6" cy="40.8" r="0.78" fill="#ffffff"></circle><circle cx="49.3" cy="40.8" r="0.78" fill="#ffffff"></circle><circle cx="51" cy="40.8" r="0.78" fill="#ffffff"></circle><circle cx="52.7" cy="40.8" r="0.78" fill="#ffffff"></circle><circle cx="54.4" cy="40.8" r="0.78" fill="#ffffff"></circle><circle cx="59.5" cy="40.8" r="0.78" fill="#ffffff"></circle><circle cx="61.2" cy="40.8" r="0.78" fill="#ffffff"></circle><circle cx="62.9" cy="40.8" r="0.78" fill="#ffffff"></circle><circle cx="64.6" cy="40.8" r="0.78" fill="#ffffff"></circle><circle cx="34" cy="42.5" r="0.78" fill="#ffffff"></circle><circle cx="35.7" cy="42.5" r="0.78" fill="#ffffff"></circle><circle cx="37.4" cy="42.5" r="0.78" fill="#ffffff"></circle><circle cx="39.1" cy="42.5" r="0.78" fill="#ffffff"></circle><circle cx="40.8" cy="42.5" r="0.78" fill="#ffffff"></circle><circle cx="42.5" cy="42.5" r="0.78" fill="#ffffff"></circle><circle cx="44.2" cy="42.5" r="0.78" fill="#ffffff"></circle><circle cx="45.9" cy="42.5" r="0.78" fill="#ffffff"></circle><circle cx="47.6" cy="42.5" r="0.78" fill="#ffffff"></circle><circle cx="49.3" cy="42.5" r="0.78" fill="#ffffff"></circle><circle cx="51" cy="42.5" r="0.78" fill="#ffffff"></circle><circle cx="52.7" cy="42.5" r="0.78" fill="#ffffff"></circle><circle cx="54.4" cy="42.5" r="0.78" fill="#ffffff"></circle><circle cx="56.1" cy="42.5" r="0.78" fill="#ffffff"></circle><circle cx="57.8" cy="42.5" r="0.78" fill="#ffffff"></circle><circle cx="59.5" cy="42.5" r="0.78" fill="#ffffff"></circle><circle cx="61.2" cy="42.5" r="0.78" fill="#ffffff"></circle><circle cx="62.9" cy="42.5" r="0.78" fill="#ffffff"></circle><circle cx="64.6" cy="42.5" r="0.78" fill="#ffffff"></circle><circle cx="35.7" cy="44.2" r="0.78" fill="#ffffff"></circle><circle cx="37.4" cy="44.2" r="0.78" fill="#ffffff"></circle><circle cx="39.1" cy="44.2" r="0.78" fill="#ffffff"></circle><circle cx="40.8" cy="44.2" r="0.78" fill="#ffffff"></circle><circle cx="42.5" cy="44.2" r="0.78" fill="#ffffff"></circle><circle cx="44.2" cy="44.2" r="0.78" fill="#ffffff"></circle><circle cx="45.9" cy="44.2" r="0.78" fill="#ffffff"></circle><circle cx="47.6" cy="44.2" r="0.78" fill="#ffffff"></circle><circle cx="49.3" cy="44.2" r="0.78" fill="#ffffff"></circle><circle cx="51" cy="44.2" r="0.78" fill="#ffffff"></circle><circle cx="52.7" cy="44.2" r="0.78" fill="#ffffff"></circle><circle cx="54.4" cy="44.2" r="1.08" fill="#E03131"></circle><circle cx="56.1" cy="44.2" r="0.78" fill="#ffffff"></circle><circle cx="57.8" cy="44.2" r="0.78" fill="#ffffff"></circle><circle cx="59.5" cy="44.2" r="0.78" fill="#ffffff"></circle><circle cx="61.2" cy="44.2" r="0.78" fill="#ffffff"></circle><circle cx="62.9" cy="44.2" r="0.78" fill="#ffffff"></circle><circle cx="64.6" cy="44.2" r="0.78" fill="#ffffff"></circle><circle cx="66.3" cy="44.2" r="0.78" fill="#ffffff"></circle><circle cx="35.7" cy="45.9" r="0.78" fill="#ffffff"></circle><circle cx="37.4" cy="45.9" r="0.78" fill="#ffffff"></circle><circle cx="39.1" cy="45.9" r="0.78" fill="#ffffff"></circle><circle cx="40.8" cy="45.9" r="0.78" fill="#ffffff"></circle><circle cx="42.5" cy="45.9" r="0.78" fill="#ffffff"></circle><circle cx="44.2" cy="45.9" r="0.78" fill="#ffffff"></circle><circle cx="45.9" cy="45.9" r="0.78" fill="#ffffff"></circle><circle cx="47.6" cy="45.9" r="0.78" fill="#ffffff"></circle><circle cx="49.3" cy="45.9" r="0.78" fill="#ffffff"></circle><circle cx="51" cy="45.9" r="0.78" fill="#ffffff"></circle><circle cx="52.7" cy="45.9" r="0.78" fill="#ffffff"></circle><circle cx="54.4" cy="45.9" r="0.78" fill="#ffffff"></circle><circle cx="56.1" cy="45.9" r="0.78" fill="#ffffff"></circle><circle cx="57.8" cy="45.9" r="0.78" fill="#ffffff"></circle><circle cx="59.5" cy="45.9" r="0.78" fill="#ffffff"></circle><circle cx="61.2" cy="45.9" r="0.78" fill="#ffffff"></circle><circle cx="62.9" cy="45.9" r="0.78" fill="#ffffff"></circle><circle cx="64.6" cy="45.9" r="0.78" fill="#ffffff"></circle><circle cx="66.3" cy="45.9" r="0.78" fill="#ffffff"></circle><circle cx="35.7" cy="47.6" r="0.78" fill="#ffffff"></circle><circle cx="37.4" cy="47.6" r="0.78" fill="#ffffff"></circle><circle cx="39.1" cy="47.6" r="0.78" fill="#ffffff"></circle><circle cx="40.8" cy="47.6" r="0.78" fill="#ffffff"></circle><circle cx="42.5" cy="47.6" r="0.78" fill="#ffffff"></circle><circle cx="44.2" cy="47.6" r="0.78" fill="#ffffff"></circle><circle cx="45.9" cy="47.6" r="0.78" fill="#ffffff"></circle><circle cx="47.6" cy="47.6" r="0.78" fill="#ffffff"></circle><circle cx="49.3" cy="47.6" r="0.78" fill="#ffffff"></circle><circle cx="51" cy="47.6" r="0.78" fill="#ffffff"></circle><circle cx="52.7" cy="47.6" r="0.78" fill="#ffffff"></circle><circle cx="54.4" cy="47.6" r="0.78" fill="#ffffff"></circle><circle cx="56.1" cy="47.6" r="0.78" fill="#ffffff"></circle><circle cx="57.8" cy="47.6" r="0.78" fill="#ffffff"></circle><circle cx="59.5" cy="47.6" r="0.78" fill="#ffffff"></circle><circle cx="61.2" cy="47.6" r="0.78" fill="#ffffff"></circle><circle cx="62.9" cy="47.6" r="0.78" fill="#ffffff"></circle><circle cx="64.6" cy="47.6" r="0.78" fill="#ffffff"></circle><circle cx="66.3" cy="47.6" r="0.78" fill="#ffffff"></circle><circle cx="37.4" cy="49.3" r="0.78" fill="#ffffff"></circle><circle cx="39.1" cy="49.3" r="0.78" fill="#ffffff"></circle><circle cx="40.8" cy="49.3" r="0.78" fill="#ffffff"></circle><circle cx="42.5" cy="49.3" r="1.08" fill="#E03131"></circle><circle cx="44.2" cy="49.3" r="0.78" fill="#ffffff"></circle><circle cx="45.9" cy="49.3" r="0.78" fill="#ffffff"></circle><circle cx="47.6" cy="49.3" r="0.78" fill="#ffffff"></circle><circle cx="49.3" cy="49.3" r="0.78" fill="#ffffff"></circle><circle cx="51" cy="49.3" r="0.78" fill="#ffffff"></circle><circle cx="52.7" cy="49.3" r="0.78" fill="#ffffff"></circle><circle cx="54.4" cy="49.3" r="0.78" fill="#ffffff"></circle><circle cx="56.1" cy="49.3" r="0.78" fill="#ffffff"></circle><circle cx="57.8" cy="49.3" r="0.78" fill="#ffffff"></circle><circle cx="59.5" cy="49.3" r="0.78" fill="#ffffff"></circle><circle cx="61.2" cy="49.3" r="0.78" fill="#ffffff"></circle><circle cx="62.9" cy="49.3" r="0.78" fill="#ffffff"></circle><circle cx="64.6" cy="49.3" r="0.78" fill="#ffffff"></circle><circle cx="66.3" cy="49.3" r="0.78" fill="#ffffff"></circle><circle cx="37.4" cy="51" r="0.78" fill="#ffffff"></circle><circle cx="39.1" cy="51" r="0.78" fill="#ffffff"></circle><circle cx="40.8" cy="51" r="0.78" fill="#ffffff"></circle><circle cx="42.5" cy="51" r="0.78" fill="#ffffff"></circle><circle cx="44.2" cy="51" r="0.78" fill="#ffffff"></circle><circle cx="45.9" cy="51" r="0.78" fill="#ffffff"></circle><circle cx="47.6" cy="51" r="0.78" fill="#ffffff"></circle><circle cx="49.3" cy="51" r="0.78" fill="#ffffff"></circle><circle cx="51" cy="51" r="0.78" fill="#ffffff"></circle><circle cx="52.7" cy="51" r="0.78" fill="#ffffff"></circle><circle cx="54.4" cy="51" r="0.78" fill="#ffffff"></circle><circle cx="56.1" cy="51" r="0.78" fill="#ffffff"></circle><circle cx="57.8" cy="51" r="0.78" fill="#ffffff"></circle><circle cx="59.5" cy="51" r="0.78" fill="#ffffff"></circle><circle cx="61.2" cy="51" r="0.78" fill="#ffffff"></circle><circle cx="62.9" cy="51" r="0.78" fill="#ffffff"></circle><circle cx="64.6" cy="51" r="0.78" fill="#ffffff"></circle><circle cx="66.3" cy="51" r="0.78" fill="#ffffff"></circle><circle cx="37.4" cy="52.7" r="0.78" fill="#ffffff"></circle><circle cx="39.1" cy="52.7" r="0.78" fill="#ffffff"></circle><circle cx="40.8" cy="52.7" r="0.78" fill="#ffffff"></circle><circle cx="42.5" cy="52.7" r="0.78" fill="#ffffff"></circle><circle cx="44.2" cy="52.7" r="0.78" fill="#ffffff"></circle><circle cx="45.9" cy="52.7" r="0.78" fill="#ffffff"></circle><circle cx="47.6" cy="52.7" r="0.78" fill="#ffffff"></circle><circle cx="49.3" cy="52.7" r="0.78" fill="#ffffff"></circle><circle cx="51" cy="52.7" r="1.08" fill="#E03131"></circle><circle cx="52.7" cy="52.7" r="0.78" fill="#ffffff"></circle><circle cx="54.4" cy="52.7" r="0.78" fill="#ffffff"></circle><circle cx="56.1" cy="52.7" r="0.78" fill="#ffffff"></circle><circle cx="57.8" cy="52.7" r="0.78" fill="#ffffff"></circle><circle cx="59.5" cy="52.7" r="1.08" fill="#E03131"></circle><circle cx="61.2" cy="52.7" r="0.78" fill="#ffffff"></circle><circle cx="62.9" cy="52.7" r="0.78" fill="#ffffff"></circle><circle cx="64.6" cy="52.7" r="0.78" fill="#ffffff"></circle><circle cx="66.3" cy="52.7" r="0.78" fill="#ffffff"></circle><circle cx="37.4" cy="54.4" r="0.78" fill="#ffffff"></circle><circle cx="39.1" cy="54.4" r="0.78" fill="#ffffff"></circle><circle cx="40.8" cy="54.4" r="0.78" fill="#ffffff"></circle><circle cx="42.5" cy="54.4" r="0.78" fill="#ffffff"></circle><circle cx="44.2" cy="54.4" r="0.78" fill="#ffffff"></circle><circle cx="45.9" cy="54.4" r="0.78" fill="#ffffff"></circle><circle cx="47.6" cy="54.4" r="0.78" fill="#ffffff"></circle><circle cx="49.3" cy="54.4" r="0.78" fill="#ffffff"></circle><circle cx="51" cy="54.4" r="0.78" fill="#ffffff"></circle><circle cx="52.7" cy="54.4" r="0.78" fill="#ffffff"></circle><circle cx="54.4" cy="54.4" r="0.78" fill="#ffffff"></circle><circle cx="56.1" cy="54.4" r="0.78" fill="#ffffff"></circle><circle cx="57.8" cy="54.4" r="0.78" fill="#ffffff"></circle><circle cx="59.5" cy="54.4" r="0.78" fill="#ffffff"></circle><circle cx="61.2" cy="54.4" r="0.78" fill="#ffffff"></circle><circle cx="62.9" cy="54.4" r="0.78" fill="#ffffff"></circle><circle cx="35.7" cy="56.1" r="0.78" fill="#ffffff"></circle><circle cx="37.4" cy="56.1" r="0.78" fill="#ffffff"></circle><circle cx="39.1" cy="56.1" r="0.78" fill="#ffffff"></circle><circle cx="40.8" cy="56.1" r="0.78" fill="#ffffff"></circle><circle cx="42.5" cy="56.1" r="1.08" fill="#E03131"></circle><circle cx="44.2" cy="56.1" r="0.78" fill="#ffffff"></circle><circle cx="45.9" cy="56.1" r="0.78" fill="#ffffff"></circle><circle cx="47.6" cy="56.1" r="0.78" fill="#ffffff"></circle><circle cx="49.3" cy="56.1" r="0.78" fill="#ffffff"></circle><circle cx="51" cy="56.1" r="0.78" fill="#ffffff"></circle><circle cx="52.7" cy="56.1" r="0.78" fill="#ffffff"></circle><circle cx="54.4" cy="56.1" r="0.78" fill="#ffffff"></circle><circle cx="56.1" cy="56.1" r="0.78" fill="#ffffff"></circle><circle cx="57.8" cy="56.1" r="0.78" fill="#ffffff"></circle><circle cx="59.5" cy="56.1" r="0.78" fill="#ffffff"></circle><circle cx="61.2" cy="56.1" r="1.08" fill="#E03131"></circle><circle cx="62.9" cy="56.1" r="0.78" fill="#ffffff"></circle><circle cx="35.7" cy="57.8" r="0.78" fill="#ffffff"></circle><circle cx="37.4" cy="57.8" r="0.78" fill="#ffffff"></circle><circle cx="39.1" cy="57.8" r="0.78" fill="#ffffff"></circle><circle cx="40.8" cy="57.8" r="0.78" fill="#ffffff"></circle><circle cx="42.5" cy="57.8" r="0.78" fill="#ffffff"></circle><circle cx="44.2" cy="57.8" r="0.78" fill="#ffffff"></circle><circle cx="45.9" cy="57.8" r="0.78" fill="#ffffff"></circle><circle cx="47.6" cy="57.8" r="0.78" fill="#ffffff"></circle><circle cx="49.3" cy="57.8" r="0.78" fill="#ffffff"></circle><circle cx="51" cy="57.8" r="0.78" fill="#ffffff"></circle><circle cx="52.7" cy="57.8" r="0.78" fill="#ffffff"></circle><circle cx="54.4" cy="57.8" r="0.78" fill="#ffffff"></circle><circle cx="56.1" cy="57.8" r="0.78" fill="#ffffff"></circle><circle cx="57.8" cy="57.8" r="0.78" fill="#ffffff"></circle><circle cx="59.5" cy="57.8" r="0.78" fill="#ffffff"></circle><circle cx="61.2" cy="57.8" r="0.78" fill="#ffffff"></circle><circle cx="35.7" cy="59.5" r="0.78" fill="#ffffff"></circle><circle cx="37.4" cy="59.5" r="0.78" fill="#ffffff"></circle><circle cx="39.1" cy="59.5" r="0.78" fill="#ffffff"></circle><circle cx="40.8" cy="59.5" r="0.78" fill="#ffffff"></circle><circle cx="42.5" cy="59.5" r="0.78" fill="#ffffff"></circle><circle cx="44.2" cy="59.5" r="0.78" fill="#ffffff"></circle><circle cx="45.9" cy="59.5" r="0.78" fill="#ffffff"></circle><circle cx="47.6" cy="59.5" r="0.78" fill="#ffffff"></circle><circle cx="49.3" cy="59.5" r="0.78" fill="#ffffff"></circle><circle cx="51" cy="59.5" r="0.78" fill="#ffffff"></circle><circle cx="52.7" cy="59.5" r="0.78" fill="#ffffff"></circle><circle cx="54.4" cy="59.5" r="0.78" fill="#ffffff"></circle><circle cx="56.1" cy="59.5" r="0.78" fill="#ffffff"></circle><circle cx="57.8" cy="59.5" r="0.78" fill="#ffffff"></circle><circle cx="59.5" cy="59.5" r="0.78" fill="#ffffff"></circle><circle cx="61.2" cy="59.5" r="0.78" fill="#ffffff"></circle><circle cx="34" cy="61.2" r="0.78" fill="#ffffff"></circle><circle cx="35.7" cy="61.2" r="0.78" fill="#ffffff"></circle><circle cx="37.4" cy="61.2" r="0.78" fill="#ffffff"></circle><circle cx="39.1" cy="61.2" r="0.78" fill="#ffffff"></circle><circle cx="40.8" cy="61.2" r="0.78" fill="#ffffff"></circle><circle cx="42.5" cy="61.2" r="0.78" fill="#ffffff"></circle><circle cx="44.2" cy="61.2" r="0.78" fill="#ffffff"></circle><circle cx="45.9" cy="61.2" r="0.78" fill="#ffffff"></circle><circle cx="47.6" cy="61.2" r="0.78" fill="#ffffff"></circle><circle cx="49.3" cy="61.2" r="0.78" fill="#ffffff"></circle><circle cx="51" cy="61.2" r="0.78" fill="#ffffff"></circle><circle cx="52.7" cy="61.2" r="0.78" fill="#ffffff"></circle><circle cx="54.4" cy="61.2" r="0.78" fill="#ffffff"></circle><circle cx="56.1" cy="61.2" r="0.78" fill="#ffffff"></circle><circle cx="57.8" cy="61.2" r="0.78" fill="#ffffff"></circle><circle cx="59.5" cy="61.2" r="0.78" fill="#ffffff"></circle><circle cx="61.2" cy="61.2" r="0.78" fill="#ffffff"></circle><circle cx="32.3" cy="62.9" r="0.78" fill="#ffffff"></circle><circle cx="34" cy="62.9" r="0.78" fill="#ffffff"></circle><circle cx="35.7" cy="62.9" r="0.78" fill="#ffffff"></circle><circle cx="37.4" cy="62.9" r="0.78" fill="#ffffff"></circle><circle cx="39.1" cy="62.9" r="0.78" fill="#ffffff"></circle><circle cx="40.8" cy="62.9" r="0.78" fill="#ffffff"></circle><circle cx="42.5" cy="62.9" r="0.78" fill="#ffffff"></circle><circle cx="44.2" cy="62.9" r="0.78" fill="#ffffff"></circle><circle cx="45.9" cy="62.9" r="0.78" fill="#ffffff"></circle><circle cx="47.6" cy="62.9" r="0.78" fill="#ffffff"></circle><circle cx="49.3" cy="62.9" r="0.78" fill="#ffffff"></circle><circle cx="51" cy="62.9" r="0.78" fill="#ffffff"></circle><circle cx="52.7" cy="62.9" r="0.78" fill="#ffffff"></circle><circle cx="54.4" cy="62.9" r="0.78" fill="#ffffff"></circle><circle cx="56.1" cy="62.9" r="0.78" fill="#ffffff"></circle><circle cx="57.8" cy="62.9" r="0.78" fill="#ffffff"></circle><circle cx="59.5" cy="62.9" r="0.78" fill="#ffffff"></circle></svg>